<?xml version="1.0" encoding="utf-8"?>
<!-- Generator: Adobe Illustrator 25.2.0, SVG Export Plug-In . SVG Version: 6.00 Build 0)  -->
<svg version="1.1" id="Layer_1" xmlns="http://www.w3.org/2000/svg" xmlns:xlink="http://www.w3.org/1999/xlink" x="0px" y="0px"
	 viewBox="0 0 190.3 182.8" style="enable-background:new 0 0 190.3 182.8;" xml:space="preserve">
<path d="M8.6,15.2c0,4.1,3.3,7.4,7.4,7.4h20c8.7,0,9,3.8,10.6,6.8c0,0,6.5,14.7,19.4,14.2c8.8-0.4,23.3,0,23.3,0H161
	c6.7-0.3,6.5,6.5,4.1,12.5l-18.7,30.6c-3.8,8-9.6,11.9-18.6,11.9H84c-1.7,0-6.1-0.1-9.2-10c0-0.1,0-0.2,0-0.3l-4.3-18.4
	c-1.1-3.9-5.2-6.2-9.1-5.1c-3.9,1.1-6.2,5.2-5.1,9.1l3.8,17.3c3.4,12.7,9.8,18.3,15.7,20.6l-3.7,5.7c-1-0.1-2-0.2-3.1-0.2
	c-15,0-27.2,12.2-27.2,27.2S54,171.8,69,171.8c12.8,0,23.6-8.9,26.5-20.9h16.9c2.8,12,13.6,20.9,26.5,20.9c15,0,27.2-12.2,27.2-27.2
	s-12.2-27.2-27.2-27.2c-12.1,0-22.3,7.9-25.9,18.8H94.9c-1.7-5.1-4.8-9.6-9-12.9l6.3-9.9h35.6c10.2,0,24.1-3.7,32.3-21.1L179,61.4
	c4-10.1,4-18.4-0.1-24.6c-3.6-5.2-9.9-8.1-17.8-8.1h-91c-5.1,0-8.5-2.4-11-8.3c0,0-3.9-12.7-15.1-12.7c-8,0-24.7,0-24.7,0H16
	C11.9,7.7,8.6,11.1,8.6,15.2z M126.4,144.6c0-6.8,5.6-12.4,12.4-12.4s12.4,5.6,12.4,12.4s-5.5,12.4-12.4,12.4
	C131.9,157,126.4,151.4,126.4,144.6z M69,132.2c6.8,0,12.4,5.6,12.4,12.4S75.8,157,69,157c-6.8,0-12.4-5.6-12.4-12.4
	C56.7,137.7,62.2,132.2,69,132.2z"/>
</svg>
