
<svg version="1.1" id="Layer_1" xmlns="http://www.w3.org/2000/svg" xmlns:xlink="http://www.w3.org/1999/xlink" x="0px" y="0px"
	 viewBox="0 0 190.3 182.8" style="enable-background:new 0 0 190.3 182.8;" xml:space="preserve">
<path d="M174.6,7.7h-3.3c0,0-16.7,0-24.7,0c-11.2,0-15.1,12.7-15.1,12.7c-2.5,5.9-5.9,8.3-11,8.3H29.5c-7.9,0-14.2,2.9-17.8,8.1
	C7.6,43,7.6,51.3,11.6,61.4l18.9,30.9c8.2,17.4,22.1,21.1,32.3,21.1h43.8c6.7,0,18.7-2.9,23.9-22.2l3.8-17.3c1.1-3.9-1.2-8-5.1-9.1
	c-3.9-1.1-8,1.2-9.1,5.1l-4.3,18.4c0,0.1,0,0.2,0,0.3c-3.1,9.9-7.5,10-9.2,10H62.8c-9,0-14.8-3.9-18.6-11.9L25.5,56.1
	c-2.4-6-2.6-12.8,4.1-12.5h71.7c0,0,14.5-0.4,23.3,0c12.9,0.5,19.4-14.2,19.4-14.2c1.6-3,1.9-6.8,10.6-6.8l20,0
	c4.1,0,7.4-3.3,7.4-7.4S178.7,7.7,174.6,7.7z"/>
<path d="M97.6,112.2l10.8,16.9c1.9,3.6,6.4,5,10,3h0c3.6-1.9,5-6.4,3-10l-10.8-16.9c-1.9-3.6-6.4-5-10-3l0,0
	C97.1,104.1,95.7,108.6,97.6,112.2z"/>
<g>
	<path d="M121.6,171.8c-15,0-27.2-12.2-27.2-27.2c0-15,12.2-27.2,27.2-27.2s27.2,12.2,27.2,27.2
		C148.8,159.6,136.6,171.8,121.6,171.8z M121.6,132.2c-6.8,0-12.4,5.6-12.4,12.4c0,6.8,5.6,12.4,12.4,12.4s12.4-5.6,12.4-12.4
		C133.9,137.7,128.4,132.2,121.6,132.2z"/>
</g>
<g>
	<path d="M51.8,171.8c-15,0-27.2-12.2-27.2-27.2c0-15,12.2-27.2,27.2-27.2S79,129.6,79,144.6C79,159.6,66.8,171.8,51.8,171.8z
		 M51.8,132.2c-6.8,0-12.4,5.6-12.4,12.4S44.9,157,51.8,157s12.4-5.6,12.4-12.4S58.6,132.2,51.8,132.2z"/>
</g>
<path d="M75.4,150.9l20.1,0c4.1,0.3,7.6-2.7,7.9-6.8v0c0.3-4.1-2.7-7.6-6.8-7.9l-20.1,0c-4.1-0.3-7.6,2.7-7.9,6.8v0
	C68.3,147,71.3,150.6,75.4,150.9z"/>
</svg>
