<?xml version="1.0" encoding="utf-8"?>
<!-- Generator: Adobe Illustrator 25.0.0, SVG Export Plug-In . SVG Version: 6.00 Build 0)  -->
<svg version="1.1" id="Layer_1" xmlns="http://www.w3.org/2000/svg" xmlns:xlink="http://www.w3.org/1999/xlink" x="0px" y="0px"
	 viewBox="0 0 409.4 350.8" style="enable-background:new 0 0 409.4 350.8;" xml:space="preserve">
<style type="text/css">
	.st0{opacity:0.47;}
	.st1{fill:#F7EC1A;}
	.st2{fill:none;}
	.st3{fill:#43AB6C;}
	.st4{font-family:'WorkSans-ExtraBold';}
	.st5{font-size:42px;}
	.st6{letter-spacing:-2;}
	.st7{letter-spacing:-1;}
	.st8{font-size:32px;}
	.st9{opacity:0.19;}
	.st10{fill:#858484;}
	.st11{fill:url(#SVGID_1_);}
	.st12{fill:#FBF6B1;}
</style>
<g id="Badge_3_-_Red">
</g>
<g id="Sticker_-_Blue">
	<g class="st0">
		
			<image style="overflow:visible;" width="1541" height="1542" xlink:href="AE5E21A8B6F81E5D.png"  transform="matrix(0.24 0 0 0.24 31.2583 -10.9299)">
		</image>
	</g>
	<path class="st1" d="M357.4,216.3c-5.3,16.7-12.6,32.3-23.3,45c-0.4,0.5-129.9,58.5-130.3,58.4c-9.7-0.6-22.1-3-33.1-6.5
		c-78.3-24.8-121.8-108.4-97-186.7s108.4-121.8,186.7-97S382.1,138,357.4,216.3z"/>
	<rect x="85.7" y="75.9" class="st2" width="263.5" height="218.3"/>
	<text transform="matrix(0.99 0 0 1 114.0949 105.5246)"><tspan x="0" y="0" class="st3 st4 st5 st6">Join now!</tspan><tspan x="10.7" y="36" class="st4 st5 st6">G</tspan><tspan x="38.2" y="36" class="st4 st5 st7">e</tspan><tspan x="63.2" y="36" class="st4 st5 st6">t </tspan><tspan x="97" y="36" class="st4 st5 st6">FREE</tspan><tspan x="9.7" y="72" class="st4 st5 st6">shipping</tspan><tspan x="-12.5" y="104" class="st3 st4 st8 st7">on your first </tspan><tspan x="-3.3" y="132" class="st3 st4 st8">t</tspan><tspan x="17.6" y="132" class="st3 st4 st8 st7">wo orders!</tspan></text>
	<g class="st9">
		<path class="st10" d="M334.6,260.8c0-0.1,0.1-0.1,0.1-0.2c-39.7-29.6-119.3,1.7-130.9,59.4c0,0,0,0,0.1,0L334.6,260.8L334.6,260.8
			z"/>
	</g>
	<g>
		
			<linearGradient id="SVGID_1_" gradientUnits="userSpaceOnUse" x1="475.8568" y1="250.2996" x2="493.2692" y2="268.3315" gradientTransform="matrix(0.9605 0.2782 -0.2782 0.9605 -130.3714 -105.4421)">
			<stop  offset="0.6484" style="stop-color:#FFFFFF"/>
			<stop  offset="1" style="stop-color:#C4C5C7"/>
		</linearGradient>
		<path class="st11" d="M334.8,261.1L334.8,261.1c-57.7-16.6-107.4,9.3-130.9,59.2c0,0,0,0,0.1,0L334.8,261.1z"/>
	</g>
	<g>
		<path class="st12" d="M260.4,31.4c63.2,20,103.6,78.2,103.9,141.1c0.6-63.6-40.1-122.9-103.9-143.1
			c-78.3-24.8-161.9,18.7-186.7,97c-4.8,15.1-7,30.5-6.9,45.6c0.1-14.4,2.4-29.1,6.9-43.6C98.5,50.1,182.1,6.7,260.4,31.4z"/>
	</g>
</g>
</svg>
