<?xml version="1.0" encoding="utf-8"?>
<!-- Generator: Adobe Illustrator 25.0.0, SVG Export Plug-In . SVG Version: 6.00 Build 0)  -->
<svg version="1.1" id="Layer_1" xmlns="http://www.w3.org/2000/svg" xmlns:xlink="http://www.w3.org/1999/xlink" x="0px" y="0px"
	 viewBox="0 0 190.3 182.8" style="enable-background:new 0 0 190.3 182.8;" xml:space="preserve">
<g>
	<path d="M144.8,32.2C133.9,15.8,116,6.1,96.9,6.1c-0.1,0-0.3,0-0.4,0c-0.3,0-0.7,0-1,0l-3.2,0v0.1c-18.6,0.4-35.9,10.1-46.5,26
		c-11.2,16.8-13.1,38-5,56.7c12.5,29.2,28.9,55.3,47.4,83.9c1.6,2.5,3.7,5,7.3,5c0.2,0,0.5,0,0.8,0c0,0,3.3-0.2,6.3-5
		c18.5-28.6,34.8-54.7,47.4-83.9C157.8,70.1,155.9,49,144.8,32.2z M139.7,80.2c-7.3,20.8-28.4,58.5-44.5,80
		c-16-21.1-36.9-58.7-44.4-80c-7.3-20.8-1.6-39.6,16-53.1c7.7-5.9,18.1-9.3,28.4-9.4l0.2,0c10.2,0,20.2,3.4,28.1,9.4
		C141.3,40.5,147,59.4,139.7,80.2z"/>
	<polygon points="130.9,64.7 130.9,64.7 130.9,64.7 	"/>
	<path d="M98.3,30L98.3,30l-2.8-0.1c-0.1,0-0.2,0-0.3,0l-3,0v0.1C74.4,31.6,60,46.6,59.7,64.8c-0.4,20.2,13.7,35,34.2,36l1.4,0
		l0.2,0c20.9-0.5,35.8-15.7,35.4-36.1C130.6,46.5,116.2,31.5,98.3,30z M71.5,65.8c-0.1-6.3,2.3-12.3,6.8-16.8c4.4-4.5,10.2-7,16.4-7
		c0,0,0.2,0,0.5,0c0.2,0,0.5,0,0.7,0c6.2,0.1,12,2.6,16.4,7c4.4,4.5,6.9,10.5,6.8,16.8l0,0.1l0,0.1c0.3,5.2-2.1,10.8-6.5,15.4
		c-4.7,5-11.1,8-16.7,8c0,0-0.3,0-0.6,0l-0.7,0c0,0-0.1,0-0.1,0c-5.5,0-11.9-3-16.6-8c-4.4-4.6-6.7-10.2-6.4-15.3L71.5,65.8
		L71.5,65.8z"/>
</g>
</svg>
