<?xml version="1.0" encoding="utf-8"?>
<!-- Generator: Adobe Illustrator 25.0.0, SVG Export Plug-In . SVG Version: 6.00 Build 0)  -->
<svg version="1.1" id="Layer_1" xmlns="http://www.w3.org/2000/svg" xmlns:xlink="http://www.w3.org/1999/xlink" x="0px" y="0px"
	 viewBox="0 0 190.3 182.8" style="enable-background:new 0 0 190.3 182.8;" xml:space="preserve">
<g id="Badge_3_-_Red">
	<g>
		<path d="M97.3,17.5L97.3,17.5L97.3,17.5 M95,19.9c0.6,0.7,1.2,1.4,1.6,2c3.6,4.5,7.7,9.5,14.1,11.2c1.5,0.4,3.1,0.6,4.7,0.6
			c4.9,0,9.4-1.8,13.4-3.3c0.6-0.2,1.3-0.5,2-0.8c0.1,0.8,0.3,1.6,0.4,2.2c0.8,5.4,1.9,12.2,6.7,17s11.5,5.8,17,6.7
			c0.7,0.1,1.5,0.2,2.2,0.4c-0.3,0.7-0.5,1.4-0.8,2c-2,5.2-4.5,11.6-2.7,18.2c1.7,6.4,6.8,10.5,11.2,14.1c0.6,0.5,1.3,1.1,2,1.6
			c-0.7,0.6-1.4,1.2-2,1.6c-4.5,3.6-9.5,7.7-11.2,14.1c-1.8,6.6,0.7,13,2.7,18.2c0.2,0.6,0.5,1.3,0.8,2c-0.8,0.1-1.6,0.3-2.2,0.4
			c-5.4,0.8-12.2,1.9-17,6.7s-5.8,11.5-6.7,17c-0.1,0.7-0.2,1.5-0.4,2.2c-0.7-0.3-1.4-0.5-2-0.8c-4-1.5-8.6-3.3-13.4-3.3
			c-1.6,0-3.2,0.2-4.7,0.6c-6.4,1.7-10.5,6.8-14.1,11.2c-0.5,0.6-1.1,1.3-1.6,2c-0.6-0.7-1.2-1.4-1.7-2c-3.6-4.5-7.7-9.5-14.1-11.2
			c-1.5-0.4-3.1-0.6-4.7-0.6c-4.9,0-9.4,1.8-13.4,3.3c-0.6,0.2-1.3,0.5-2,0.8c-0.1-0.8-0.3-1.6-0.4-2.2c-0.8-5.4-1.9-12.2-6.7-17
			s-11.5-5.8-17-6.7c-0.7-0.1-1.5-0.2-2.2-0.4c0.3-0.7,0.5-1.4,0.8-2c2-5.2,4.5-11.6,2.7-18.2c-1.7-6.4-6.8-10.5-11.2-14.1
			c-0.6-0.5-1.3-1.1-2-1.6c0.7-0.6,1.4-1.2,2-1.6c4.5-3.6,9.5-7.7,11.2-14.1c1.8-6.6-0.7-13-2.7-18.2c-0.2-0.6-0.5-1.3-0.8-2
			c0.8-0.1,1.6-0.3,2.2-0.4c5.4-0.8,12.2-1.9,17-6.7s5.8-11.5,6.7-17c0.1-0.7,0.2-1.5,0.4-2.2c0.7,0.3,1.4,0.5,2,0.8
			c4,1.5,8.6,3.3,13.4,3.3c1.6,0,3.2-0.2,4.7-0.6c6.4-1.7,10.5-6.8,14.1-11.2C93.8,21.3,94.4,20.6,95,19.9 M59.9,26.2L59.9,26.2
			L59.9,26.2 M134.4,28.7L134.4,28.7L134.4,28.7 M95,7.1c-7,0-12.1,13.8-18.6,15.5c-0.6,0.2-1.2,0.2-1.9,0.2
			c-5.6,0-13.3-5.1-18.8-5.1c-1.1,0-2.2,0.2-3.1,0.8c-5.9,3.4-3.5,17.9-8.3,22.7C39.4,46,25,43.5,21.5,49.5
			c-3.4,5.9,5.9,17.1,4.1,23.8c-1.7,6.5-15.5,11.6-15.5,18.6s13.8,12.1,15.5,18.6c1.8,6.7-7.5,18-4.1,23.8
			c3.4,5.9,17.9,3.5,22.7,8.3s2.4,19.3,8.3,22.7c0.9,0.5,2,0.8,3.1,0.8c5.5,0,13.2-5.1,18.8-5.1c0.7,0,1.3,0.1,1.9,0.2
			C82.9,163,88,176.7,95,176.7s12.1-13.8,18.6-15.5c0.6-0.2,1.2-0.2,1.9-0.2c5.6,0,13.3,5.1,18.8,5.1c1.1,0,2.2-0.2,3.1-0.8
			c5.9-3.4,3.5-17.9,8.3-22.7s19.3-2.4,22.7-8.3c3.4-5.9-5.9-17.1-4.1-23.8c1.7-6.5,15.5-11.6,15.5-18.6s-13.7-12.1-15.5-18.6
			c-1.8-6.7,7.5-18,4.1-23.8c-3.4-5.9-17.9-3.5-22.7-8.3s-2.4-19.3-8.3-22.7c-0.9-0.5-2-0.7-3.1-0.7c-5.5,0-13.2,5.1-18.8,5.1
			c-0.7,0-1.3-0.1-1.9-0.2C107.1,20.8,102,7.1,95,7.1L95,7.1z"/>
	</g>
</g>
</svg>
