<?xml version="1.0" encoding="utf-8"?>
<svg version="1.1" id="Layer_1" xmlns="http://www.w3.org/2000/svg" xmlns:xlink="http://www.w3.org/1999/xlink" x="0px" y="0px"
	 viewBox="0 0 20 20" style="enable-background:new 0 0 20 20;" xml:space="preserve">
<style type="text/css">
	.st0{fill:#231F20;}
</style>
<desc>Created with Sketch.</desc>
<path class="st0" d="M14,12.2c2-2.6,2-6.5-0.6-9.4c-1-1.1-2.3-1.8-3.8-2.1C4.4-0.2-0.1,4.3,1,9.4c0.3,1.4,1.1,2.8,2.1,3.8
	c2.8,2.6,6.7,2.5,9.3,0.6l5.8,5.8l1.5-1.5L14,12.2z M13.2,6.7c0.8,3.8-2.4,7-6.2,6.2C5.1,12.5,3.5,11,3.1,9.1
	c-0.8-3.8,2.4-7,6.2-6.2C11.2,3.3,12.7,4.8,13.2,6.7z"/>
</svg>
