<?xml version="1.0" encoding="utf-8"?>
<!-- Generator: Adobe Illustrator 25.0.0, SVG Export Plug-In . SVG Version: 6.00 Build 0)  -->
<svg version="1.1" id="Layer_1" xmlns="http://www.w3.org/2000/svg" xmlns:xlink="http://www.w3.org/1999/xlink" x="0px" y="0px"
	 viewBox="0 0 190.3 182.8" style="enable-background:new 0 0 190.3 182.8;" xml:space="preserve">
<g>
	<path d="M145.2,32.2C134.3,15.8,116.4,6.1,97.3,6.1c-0.1,0-0.3,0-0.4,0c-0.3,0-0.7,0-1,0h-3.2v0.1c-18.6,0.4-35.9,10.1-46.5,26
		c-11.2,16.8-13.1,38-5,56.7C53.6,118,70,144.1,88.5,172.7c1.6,2.5,3.7,5,7.3,5c0.2,0,0.5,0,0.8,0c0,0,3.3-0.2,6.3-5
		c18.5-28.6,34.8-54.7,47.4-83.9C158.2,70.1,156.3,49,145.2,32.2z M140.1,80.2c-7.3,20.8-28.4,58.5-44.5,80
		c-16-21.1-36.9-58.7-44.4-80c-7.3-20.8-1.6-39.6,16-53.1c7.7-5.9,18.1-9.3,28.4-9.4h0.2c10.2,0,20.2,3.4,28.1,9.4
		C141.7,40.5,147.4,59.4,140.1,80.2z"/>
	<path d="M131.2,64.7L131.2,64.7L131.2,64.7z"/>
</g>
<path d="M129.1,57.4c-4.9-21-27.3-14.7-33.6-5.7c-6.5-8.8-28.5-14.8-33.4,6c-4.6,19.7,27.6,40.2,33.5,43.9c0,0,0-0.1,0-0.3
	C101.5,97.5,133.7,77,129.1,57.4z"/>
</svg>
